<?xml version="1.0" encoding="utf-8"?>
<!-- Generator: Adobe Illustrator 27.3.1, SVG Export Plug-In . SVG Version: 6.00 Build 0)  -->
<svg version="1.1" id="Layer_1" xmlns="http://www.w3.org/2000/svg" xmlns:xlink="http://www.w3.org/1999/xlink" x="0px" y="0px"
	 viewBox="0 0 195.3 52" style="enable-background:new 0 0 195.3 52;" xml:space="preserve">
<style type="text/css">
	.st0{fill:#FFFFFF;}
	.st1{fill-rule:evenodd;clip-rule:evenodd;fill:url(#SVGID_1_);}
	.st2{fill:#006FFF;}
	.st3{fill:#343E49;}
	.st4{fill:#ABBCD3;}
</style>
<path class="st0" d="M0,9c0-5,4-9,9-9h34c5,0,9,4,9,9v34c0,5-4,9-9,9H9c-5,0-9-4-9-9V9z"/>
<linearGradient id="SVGID_1_" gradientUnits="userSpaceOnUse" x1="6.2523" y1="50.7099" x2="46.2523" y2="4.7099" gradientTransform="matrix(1 0 0 -1 0 54)">
	<stop  offset="0" style="stop-color:#61BBDB"/>
	<stop  offset="1" style="stop-color:#CEDC8D"/>
</linearGradient>
<path class="st1" d="M43,3H9C5.7,3,3,5.7,3,9v34c0,3.3,2.7,6,6,6h34c3.3,0,6-2.7,6-6V9C49,5.7,46.3,3,43,3z M9,0C4,0,0,4,0,9v34
	c0,5,4,9,9,9h34c5,0,9-4,9-9V9c0-5-4-9-9-9H9z"/>
<path class="st2" d="M35,36.2v7.3h-4.4c-3.2,0-5.6-0.8-7.4-2.3c-1.8-1.5-2.7-4.1-2.7-7.5V22.5H17v-7.2h3.5V8.5h8.7v6.9H35v7.2h-5.7
	v11.3c0,0.8,0.2,1.4,0.6,1.8c0.4,0.4,1.1,0.6,2,0.6H35z"/>
<path class="st3" d="M169.2,19.7c0-2.1,0.5-4,1.4-5.7c0.9-1.7,2.2-3,3.9-4c1.7-1,3.5-1.4,5.5-1.4c2.4,0,4.4,0.6,6.2,1.7
	c1.8,1.1,3,2.7,3.8,4.8h-3.4c-0.6-1.3-1.5-2.3-2.6-3c-1.1-0.7-2.5-1.1-4-1.1c-1.5,0-2.9,0.4-4.1,1.1c-1.2,0.7-2.1,1.7-2.8,3
	c-0.7,1.3-1,2.8-1,4.5c0,1.7,0.3,3.2,1,4.5c0.7,1.3,1.6,2.3,2.8,3c1.2,0.7,2.6,1.1,4.1,1.1c1.6,0,2.9-0.3,4-1c1.1-0.7,2-1.7,2.6-3
	h3.4c-0.8,2.1-2.1,3.7-3.8,4.8c-1.8,1.1-3.8,1.7-6.2,1.7c-2,0-3.8-0.5-5.5-1.4c-1.6-1-2.9-2.3-3.9-3.9
	C169.7,23.7,169.2,21.8,169.2,19.7z"/>
<path class="st3" d="M166.7,15.3c0,1.8-0.6,3.3-1.9,4.5c-1.2,1.2-3.1,1.8-5.6,1.8h-4.2v9h-2.8V9h7c2.4,0,4.3,0.6,5.5,1.8
	C166.1,11.9,166.7,13.4,166.7,15.3z M159.3,19.2c1.6,0,2.7-0.3,3.5-1s1.1-1.7,1.1-2.9c0-2.7-1.5-4-4.6-4h-4.2v7.9H159.3z"/>
<path class="st3" d="M127.3,19.7c0-2.1,0.5-4,1.4-5.7c1-1.7,2.2-3,3.9-4c1.7-1,3.5-1.4,5.5-1.4c2.4,0,4.4,0.6,6.2,1.7
	c1.8,1.1,3,2.7,3.8,4.8h-3.4c-0.6-1.3-1.5-2.3-2.6-3c-1.1-0.7-2.5-1.1-4-1.1c-1.5,0-2.9,0.4-4.1,1.1c-1.2,0.7-2.1,1.7-2.8,3
	c-0.7,1.3-1,2.8-1,4.5c0,1.7,0.3,3.2,1,4.5c0.7,1.3,1.6,2.3,2.8,3s2.6,1.1,4.1,1.1c1.6,0,2.9-0.3,4-1c1.1-0.7,2-1.7,2.6-3h3.4
	c-0.8,2.1-2.1,3.7-3.8,4.8c-1.8,1.1-3.8,1.7-6.2,1.7c-2,0-3.8-0.5-5.5-1.4c-1.6-1-2.9-2.3-3.9-3.9C127.8,23.7,127.3,21.8,127.3,19.7
	z"/>
<path class="st2" d="M110.5,30.6l-4.1-5.9l-3.4,5.9h-7l7-10.8L95.8,9.4h7.3l4.1,5.9l3.4-5.9h7L110.5,20l7.3,10.5H110.5z"/>
<path class="st2" d="M70.8,19.9c0-2.2,0.4-4.1,1.2-5.7c0.8-1.6,2-2.9,3.4-3.8c1.4-0.9,3-1.3,4.8-1.3c1.5,0,2.8,0.3,3.9,0.9
	c1.1,0.6,2,1.4,2.6,2.4v-3h6.5v21.2h-6.5v-3c-0.6,1-1.5,1.8-2.7,2.4c-1.1,0.6-2.4,0.9-3.9,0.9c-1.7,0-3.3-0.4-4.7-1.3
	c-1.4-0.9-2.5-2.2-3.4-3.8C71.2,24,70.8,22.1,70.8,19.9z M86.7,20c0-1.6-0.5-2.9-1.4-3.8c-0.9-0.9-2-1.4-3.3-1.4s-2.4,0.5-3.3,1.4
	c-0.9,0.9-1.3,2.2-1.3,3.8s0.4,2.9,1.3,3.9c0.9,0.9,2,1.4,3.3,1.4s2.4-0.5,3.3-1.4C86.3,22.9,86.7,21.6,86.7,20z"/>
<path class="st2" d="M68.5,25v5.5h-3.3c-2.4,0-4.2-0.6-5.5-1.7c-1.3-1.2-2-3.1-2-5.7v-8.4h-2.6V9.4h2.6V4.2h6.5v5.2h4.3v5.4h-4.3
	v8.5c0,0.6,0.2,1.1,0.5,1.4s0.8,0.4,1.5,0.4H68.5z"/>
<g>
	<path class="st4" d="M192.7,40.2c0.2-0.5,0.6-0.8,1-1.1c0.5-0.3,1-0.4,1.6-0.4v1.4H195c-1.5,0-2.3,0.8-2.3,2.5v4.5h-1.4v-8.2h1.4
		V40.2z"/>
	<path class="st4" d="M189.5,42.7c0,0.3,0,0.5,0,0.8h-6.6c0.1,0.8,0.3,1.4,0.8,1.9c0.5,0.5,1.1,0.7,1.8,0.7c0.6,0,1.1-0.1,1.5-0.4
		c0.4-0.3,0.7-0.7,0.8-1.1h1.5c-0.2,0.8-0.7,1.4-1.3,1.9c-0.7,0.5-1.5,0.7-2.5,0.7c-0.8,0-1.5-0.2-2.1-0.5c-0.6-0.3-1.1-0.8-1.4-1.5
		c-0.4-0.7-0.5-1.4-0.5-2.3c0-0.9,0.2-1.6,0.5-2.2s0.8-1.1,1.4-1.5c0.6-0.3,1.3-0.5,2.1-0.5c0.8,0,1.5,0.2,2.1,0.5
		c0.6,0.3,1.1,0.8,1.4,1.4C189.3,41.2,189.5,41.9,189.5,42.7z M188.1,42.4c0-0.5-0.1-1-0.3-1.3c-0.2-0.4-0.5-0.7-0.9-0.9
		c-0.4-0.2-0.8-0.3-1.3-0.3c-0.7,0-1.3,0.2-1.8,0.7c-0.5,0.4-0.8,1-0.8,1.8H188.1z"/>
	<path class="st4" d="M177.1,47.2c-0.6,0-1.2-0.1-1.7-0.3c-0.5-0.2-0.9-0.5-1.2-0.9c-0.3-0.4-0.4-0.8-0.5-1.3h1.4
		c0,0.4,0.2,0.7,0.6,1c0.4,0.3,0.8,0.4,1.4,0.4c0.5,0,0.9-0.1,1.2-0.3c0.3-0.2,0.5-0.5,0.5-0.9c0-0.4-0.2-0.6-0.5-0.8
		c-0.3-0.2-0.8-0.4-1.5-0.5c-0.6-0.2-1.1-0.3-1.5-0.5c-0.4-0.2-0.7-0.4-1-0.7c-0.3-0.3-0.4-0.8-0.4-1.3c0-0.4,0.1-0.8,0.4-1.2
		c0.2-0.4,0.6-0.6,1.1-0.8c0.5-0.2,1-0.3,1.6-0.3c0.9,0,1.6,0.2,2.2,0.7c0.6,0.5,0.9,1.1,0.9,1.9h-1.4c0-0.4-0.2-0.8-0.5-1
		c-0.3-0.3-0.7-0.4-1.3-0.4c-0.5,0-0.9,0.1-1.2,0.3c-0.3,0.2-0.4,0.5-0.4,0.8c0,0.3,0.1,0.5,0.3,0.7c0.2,0.2,0.4,0.3,0.7,0.4
		c0.3,0.1,0.6,0.2,1.1,0.3c0.6,0.2,1.1,0.3,1.4,0.5c0.4,0.1,0.7,0.4,0.9,0.7c0.3,0.3,0.4,0.7,0.4,1.2c0,0.5-0.1,0.9-0.4,1.2
		c-0.2,0.4-0.6,0.6-1.1,0.9C178.2,47.1,177.7,47.2,177.1,47.2z"/>
	<path class="st4" d="M171.2,37.5c-0.3,0-0.5-0.1-0.7-0.3c-0.2-0.2-0.3-0.4-0.3-0.7c0-0.3,0.1-0.5,0.3-0.7c0.2-0.2,0.4-0.3,0.7-0.3
		c0.2,0,0.5,0.1,0.6,0.3c0.2,0.2,0.3,0.4,0.3,0.7c0,0.3-0.1,0.5-0.3,0.7C171.6,37.4,171.4,37.5,171.2,37.5z M171.8,38.9v8.2h-1.4
		v-8.2H171.8z"/>
	<path class="st4" d="M169.1,38.9l-2.6,8.2h-1.4l-2-6.5l-2,6.5h-1.4l-2.6-8.2h1.4l1.9,6.9l2-6.9h1.4l2,6.9l1.9-6.9H169.1z"/>
	<path class="st4" d="M152.6,45.2l-1.7,4H150l1.1-4H152.6z"/>
	<path class="st4" d="M147,40.2c0.2-0.5,0.6-0.8,1-1.1c0.4-0.3,1-0.4,1.6-0.4v1.4h-0.4c-1.5,0-2.3,0.8-2.3,2.5v4.5h-1.4v-8.2h1.4
		V40.2z"/>
	<path class="st4" d="M143.8,42.7c0,0.3,0,0.5,0,0.8h-6.6c0.1,0.8,0.3,1.4,0.8,1.9c0.5,0.5,1.1,0.7,1.8,0.7c0.6,0,1.1-0.1,1.5-0.4
		c0.4-0.3,0.7-0.7,0.8-1.1h1.5c-0.2,0.8-0.7,1.4-1.3,1.9c-0.7,0.5-1.5,0.7-2.5,0.7c-0.8,0-1.5-0.2-2.1-0.5c-0.6-0.3-1.1-0.8-1.4-1.5
		c-0.4-0.7-0.5-1.4-0.5-2.3c0-0.9,0.2-1.6,0.5-2.2c0.3-0.6,0.8-1.1,1.4-1.5c0.6-0.3,1.3-0.5,2.1-0.5c0.8,0,1.5,0.2,2.1,0.5
		c0.6,0.3,1.1,0.8,1.4,1.4C143.6,41.2,143.8,41.9,143.8,42.7z M142.4,42.4c0-0.5-0.1-1-0.3-1.3c-0.2-0.4-0.5-0.7-0.9-0.9
		c-0.4-0.2-0.8-0.3-1.3-0.3c-0.7,0-1.3,0.2-1.8,0.7c-0.5,0.4-0.8,1-0.8,1.8H142.4z"/>
	<path class="st4" d="M134.7,40H133v7.1h-1.4V40h-1.1v-1.1h1.1v-0.6c0-0.9,0.2-1.6,0.7-2c0.5-0.4,1.2-0.6,2.3-0.6v1.1
		c-0.6,0-1,0.1-1.3,0.4c-0.2,0.2-0.4,0.6-0.4,1.2v0.6h1.7V40z"/>
	<path class="st4" d="M120.7,42.9c0-0.8,0.2-1.6,0.5-2.2c0.3-0.6,0.8-1.1,1.4-1.5c0.6-0.3,1.3-0.5,2-0.5c0.7,0,1.3,0.2,1.9,0.5
		c0.5,0.3,0.9,0.7,1.2,1.2v-1.5h1.4v8.2h-1.4v-1.5c-0.3,0.5-0.7,0.9-1.2,1.2c-0.5,0.3-1.1,0.5-1.9,0.5c-0.7,0-1.4-0.2-2-0.5
		c-0.6-0.4-1.1-0.9-1.4-1.5C120.9,44.5,120.7,43.8,120.7,42.9z M127.7,43c0-0.6-0.1-1.2-0.4-1.6c-0.2-0.5-0.6-0.8-1-1
		c-0.4-0.2-0.9-0.4-1.4-0.4s-1,0.1-1.4,0.4c-0.4,0.2-0.8,0.6-1,1s-0.4,1-0.4,1.6c0,0.6,0.1,1.2,0.4,1.6c0.2,0.5,0.6,0.8,1,1.1
		c0.4,0.2,0.9,0.4,1.4,0.4s1-0.1,1.4-0.4c0.4-0.2,0.8-0.6,1-1.1C127.5,44.1,127.7,43.6,127.7,43z"/>
	<path class="st4" d="M116.3,47.2c-0.6,0-1.2-0.1-1.7-0.3c-0.5-0.2-0.9-0.5-1.2-0.9c-0.3-0.4-0.5-0.8-0.5-1.3h1.4
		c0,0.4,0.2,0.7,0.6,1c0.3,0.3,0.8,0.4,1.4,0.4c0.5,0,0.9-0.1,1.2-0.3c0.3-0.2,0.4-0.5,0.4-0.9c0-0.4-0.2-0.6-0.5-0.8
		c-0.3-0.2-0.8-0.4-1.5-0.5c-0.6-0.2-1.1-0.3-1.5-0.5c-0.4-0.2-0.7-0.4-1-0.7c-0.3-0.3-0.4-0.8-0.4-1.3c0-0.4,0.1-0.8,0.4-1.2
		c0.2-0.4,0.6-0.6,1.1-0.8c0.5-0.2,1-0.3,1.6-0.3c0.9,0,1.6,0.2,2.2,0.7s0.9,1.1,0.9,1.9h-1.4c0-0.4-0.2-0.8-0.5-1
		c-0.3-0.3-0.7-0.4-1.3-0.4c-0.5,0-0.9,0.1-1.2,0.3c-0.3,0.2-0.4,0.5-0.4,0.8c0,0.3,0.1,0.5,0.3,0.7c0.2,0.2,0.4,0.3,0.7,0.4
		c0.3,0.1,0.6,0.2,1.1,0.3c0.6,0.2,1.1,0.3,1.4,0.5c0.4,0.1,0.7,0.4,0.9,0.7c0.3,0.3,0.4,0.7,0.4,1.2c0,0.5-0.1,0.9-0.4,1.2
		c-0.2,0.4-0.6,0.6-1.1,0.9C117.4,47.1,116.9,47.2,116.3,47.2z"/>
	<path class="st4" d="M107.8,45.2l-1.7,4h-0.9l1.1-4H107.8z"/>
	<path class="st4" d="M104.6,42.7c0,0.3,0,0.5,0,0.8H98c0.1,0.8,0.3,1.4,0.8,1.9c0.5,0.5,1.1,0.7,1.8,0.7c0.6,0,1.1-0.1,1.5-0.4
		c0.4-0.3,0.7-0.7,0.8-1.1h1.5c-0.2,0.8-0.7,1.4-1.3,1.9c-0.7,0.5-1.5,0.7-2.5,0.7c-0.8,0-1.5-0.2-2.1-0.5c-0.6-0.3-1.1-0.8-1.4-1.5
		c-0.3-0.7-0.5-1.4-0.5-2.3c0-0.9,0.2-1.6,0.5-2.2c0.3-0.6,0.8-1.1,1.4-1.5c0.6-0.3,1.3-0.5,2.1-0.5c0.8,0,1.5,0.2,2.1,0.5
		c0.6,0.3,1.1,0.8,1.4,1.4C104.4,41.2,104.6,41.9,104.6,42.7z M103.2,42.4c0-0.5-0.1-1-0.3-1.3c-0.2-0.4-0.5-0.7-0.9-0.9
		c-0.4-0.2-0.8-0.3-1.3-0.3c-0.7,0-1.3,0.2-1.8,0.7c-0.5,0.4-0.8,1-0.8,1.8H103.2z"/>
	<path class="st4" d="M94.8,36v11.1h-1.4V36H94.8z"/>
	<path class="st4" d="M84.6,40.4c0.3-0.5,0.7-0.9,1.2-1.2c0.5-0.3,1.2-0.5,1.9-0.5c0.7,0,1.4,0.2,2,0.5c0.6,0.4,1.1,0.8,1.4,1.5
		c0.3,0.6,0.5,1.4,0.5,2.2c0,0.8-0.2,1.6-0.5,2.2c-0.3,0.6-0.8,1.2-1.4,1.5c-0.6,0.4-1.2,0.5-2,0.5c-0.7,0-1.3-0.2-1.9-0.5
		c-0.5-0.3-0.9-0.7-1.2-1.2V51h-1.4V38.9h1.4V40.4z M90.2,42.9c0-0.6-0.1-1.2-0.4-1.6s-0.6-0.8-1-1c-0.4-0.2-0.9-0.4-1.4-0.4
		c-0.5,0-1,0.1-1.4,0.4c-0.4,0.2-0.8,0.6-1,1.1c-0.2,0.5-0.4,1-0.4,1.6c0,0.6,0.1,1.2,0.4,1.6c0.3,0.5,0.6,0.8,1,1.1
		c0.4,0.2,0.9,0.4,1.4,0.4c0.5,0,1-0.1,1.4-0.4c0.4-0.2,0.8-0.6,1-1.1C90.1,44.1,90.2,43.6,90.2,42.9z"/>
	<path class="st4" d="M77.7,38.7c0.6,0,1.2,0.1,1.7,0.4c0.5,0.3,0.9,0.7,1.2,1.2c0.3,0.5,0.4,1.2,0.4,1.9v4.8h-1.3v-4.6
		c0-0.8-0.2-1.4-0.6-1.9c-0.4-0.4-0.9-0.7-1.6-0.7c-0.7,0-1.3,0.2-1.7,0.7c-0.4,0.5-0.6,1.1-0.6,2v4.5h-1.3v-4.6
		c0-0.8-0.2-1.4-0.6-1.9c-0.4-0.4-0.9-0.7-1.6-0.7c-0.7,0-1.3,0.2-1.7,0.7c-0.4,0.5-0.6,1.1-0.6,2v4.5h-1.4v-8.2h1.4v1.2
		c0.3-0.4,0.6-0.8,1.1-1c0.5-0.2,1-0.3,1.5-0.3c0.7,0,1.3,0.2,1.8,0.5c0.5,0.3,0.9,0.8,1.2,1.4c0.2-0.6,0.6-1,1.1-1.3
		S77.1,38.7,77.7,38.7z"/>
	<path class="st4" d="M64.8,37.5c-0.3,0-0.5-0.1-0.7-0.3s-0.3-0.4-0.3-0.7c0-0.3,0.1-0.5,0.3-0.7s0.4-0.3,0.7-0.3
		c0.2,0,0.5,0.1,0.6,0.3c0.2,0.2,0.3,0.4,0.3,0.7c0,0.3-0.1,0.5-0.3,0.7C65.3,37.4,65.1,37.5,64.8,37.5z M65.5,38.9v8.2h-1.4v-8.2
		H65.5z"/>
	<path class="st4" d="M59.2,47.2c-0.6,0-1.2-0.1-1.7-0.3c-0.5-0.2-0.9-0.5-1.2-0.9c-0.3-0.4-0.5-0.8-0.5-1.3h1.4
		c0,0.4,0.2,0.7,0.6,1c0.3,0.3,0.8,0.4,1.4,0.4c0.5,0,0.9-0.1,1.2-0.3c0.3-0.2,0.4-0.5,0.4-0.9c0-0.4-0.2-0.6-0.5-0.8
		c-0.3-0.2-0.8-0.4-1.5-0.5c-0.6-0.2-1.1-0.3-1.5-0.5c-0.4-0.2-0.7-0.4-1-0.7C56.1,42,56,41.6,56,41c0-0.4,0.1-0.8,0.4-1.2
		c0.2-0.4,0.6-0.6,1.1-0.8c0.5-0.2,1-0.3,1.6-0.3c0.9,0,1.6,0.2,2.2,0.7c0.6,0.5,0.9,1.1,0.9,1.9h-1.4c0-0.4-0.2-0.8-0.5-1
		c-0.3-0.3-0.7-0.4-1.3-0.4c-0.5,0-0.9,0.1-1.2,0.3c-0.3,0.2-0.4,0.5-0.4,0.8c0,0.3,0.1,0.5,0.3,0.7c0.2,0.2,0.4,0.3,0.7,0.4
		c0.3,0.1,0.6,0.2,1.1,0.3c0.6,0.2,1.1,0.3,1.4,0.5c0.4,0.1,0.7,0.4,0.9,0.7c0.3,0.3,0.4,0.7,0.4,1.2c0,0.5-0.1,0.9-0.4,1.2
		c-0.2,0.4-0.6,0.6-1.1,0.9C60.3,47.1,59.8,47.2,59.2,47.2z"/>
</g>
</svg>
